<svg xmlns="http://www.w3.org/2000/svg" viewBox="0 0 24 24" fill="none">
  <rect width="24" height="24" rx="5" fill="#0d1014"/>
  <path d="M4 8h10c0 2-1.3 3.1-2.8 3.5L11 15h2.6l1.3 3.6H6.5L7.8 15H9l.7-2.9C6.7 11.5 4 10.7 4 8Z" fill="url(#g)"/>
  <path d="M15.5 6.6c1.5 0 2.8.8 2.8 2.1 0 .8-.6 1.1-1.3 1.1H13.2V8h2c.3 0 .3-.3 0-.4-.3-.1-.7-.1-.7-.6 0-.3.5-.4 1-.4Z" fill="url(#g)"/>
  <defs>
    <linearGradient id="g" x1="4" y1="8" x2="18" y2="18" gradientUnits="userSpaceOnUse">
      <stop stop-color="#3870d9"/><stop offset="1" stop-color="#26ad82"/>
    </linearGradient>
  </defs>
</svg>
